# Blender 4.3.2
# www.blender.org
o SurfCylinder
v 0.000000 -1.000000 1.000000
v 0.000000 -0.714286 1.000000
v 0.000000 -0.428571 1.000000
v 0.000000 -0.142857 1.000000
v 0.000000 0.142858 1.000000
v 0.000000 0.428572 1.000000
v 0.000000 0.714286 1.000000
v 0.000000 1.000000 1.000000
v -0.181963 -1.000000 0.983305
v -0.181963 -0.714286 0.983305
v -0.181963 -0.428571 0.983305
v -0.181963 -0.142857 0.983305
v -0.181963 0.142857 0.983305
v -0.181963 0.428572 0.983305
v -0.181963 0.714286 0.983305
v -0.181963 1.000000 0.983305
v -0.368095 -1.000000 0.929788
v -0.368095 -0.714285 0.929788
v -0.368095 -0.428571 0.929788
v -0.368095 -0.142857 0.929788
v -0.368095 0.142858 0.929788
v -0.368095 0.428572 0.929788
v -0.368095 0.714286 0.929788
v -0.368095 1.000000 0.929788
v -0.547210 -1.000000 0.836995
v -0.547210 -0.714286 0.836995
v -0.547210 -0.428571 0.836995
v -0.547210 -0.142857 0.836995
v -0.547210 0.142858 0.836995
v -0.547210 0.428572 0.836995
v -0.547210 0.714286 0.836995
v -0.547210 1.000000 0.836996
v -0.707107 -1.000000 0.707107
v -0.707107 -0.714286 0.707107
v -0.707107 -0.428571 0.707107
v -0.707107 -0.142857 0.707107
v -0.707107 0.142858 0.707107
v -0.707107 0.428572 0.707107
v -0.707107 0.714286 0.707107
v -0.707107 1.000000 0.707107
v -0.836995 -1.000000 0.547210
v -0.836996 -0.714286 0.547210
v -0.836995 -0.428571 0.547210
v -0.836995 -0.142857 0.547210
v -0.836995 0.142858 0.547210
v -0.836995 0.428572 0.547210
v -0.836995 0.714286 0.547210
v -0.836996 1.000000 0.547210
v -0.929788 -1.000000 0.368095
v -0.929788 -0.714286 0.368095
v -0.929788 -0.428571 0.368095
v -0.929788 -0.142857 0.368095
v -0.929788 0.142858 0.368095
v -0.929788 0.428572 0.368095
v -0.929788 0.714286 0.368095
v -0.929788 1.000000 0.368095
v -0.983305 -1.000000 0.181963
v -0.983305 -0.714286 0.181963
v -0.983305 -0.428571 0.181963
v -0.983305 -0.142857 0.181963
v -0.983305 0.142858 0.181963
v -0.983305 0.428572 0.181963
v -0.983305 0.714286 0.181963
v -0.983305 1.000000 0.181963
v -1.000000 -1.000000 0.000000
v -1.000000 -0.714286 0.000000
v -1.000000 -0.428571 0.000000
v -1.000000 -0.142857 0.000000
v -1.000000 0.142858 0.000000
v -1.000000 0.428572 0.000000
v -1.000000 0.714286 0.000000
v -1.000000 1.000000 0.000000
v -0.983305 -1.000000 -0.181963
v -0.983305 -0.714286 -0.181963
v -0.983305 -0.428571 -0.181963
v -0.983305 -0.142857 -0.181963
v -0.983305 0.142857 -0.181963
v -0.983305 0.428572 -0.181963
v -0.983305 0.714286 -0.181963
v -0.983305 1.000000 -0.181963
v -0.929788 -1.000000 -0.368095
v -0.929788 -0.714285 -0.368095
v -0.929788 -0.428571 -0.368095
v -0.929788 -0.142857 -0.368095
v -0.929788 0.142858 -0.368095
v -0.929788 0.428572 -0.368095
v -0.929788 0.714286 -0.368095
v -0.929788 1.000000 -0.368095
v -0.836995 -1.000000 -0.547210
v -0.836995 -0.714286 -0.547210
v -0.836995 -0.428571 -0.547210
v -0.836995 -0.142857 -0.547210
v -0.836995 0.142858 -0.547210
v -0.836995 0.428572 -0.547210
v -0.836995 0.714286 -0.547210
v -0.836996 1.000000 -0.547210
v -0.707107 -1.000000 -0.707107
v -0.707107 -0.714286 -0.707107
v -0.707107 -0.428571 -0.707107
v -0.707107 -0.142857 -0.707107
v -0.707107 0.142858 -0.707107
v -0.707107 0.428572 -0.707107
v -0.707107 0.714286 -0.707107
v -0.707107 1.000000 -0.707107
v -0.547210 -1.000000 -0.836995
v -0.547210 -0.714286 -0.836996
v -0.547210 -0.428571 -0.836995
v -0.547210 -0.142857 -0.836995
v -0.547210 0.142858 -0.836995
v -0.547210 0.428572 -0.836995
v -0.547210 0.714286 -0.836995
v -0.547210 1.000000 -0.836996
v -0.368095 -1.000000 -0.929788
v -0.368095 -0.714286 -0.929788
v -0.368095 -0.428571 -0.929788
v -0.368095 -0.142857 -0.929788
v -0.368095 0.142858 -0.929788
v -0.368095 0.428572 -0.929788
v -0.368095 0.714286 -0.929788
v -0.368095 1.000000 -0.929788
v -0.181963 -1.000000 -0.983305
v -0.181963 -0.714286 -0.983305
v -0.181963 -0.428571 -0.983305
v -0.181963 -0.142857 -0.983305
v -0.181963 0.142858 -0.983305
v -0.181963 0.428572 -0.983305
v -0.181963 0.714286 -0.983305
v -0.181963 1.000000 -0.983305
v 0.000000 -1.000000 -1.000000
v 0.000000 -0.714286 -1.000000
v 0.000000 -0.428571 -1.000000
v 0.000000 -0.142857 -1.000000
v 0.000000 0.142858 -1.000000
v 0.000000 0.428572 -1.000000
v 0.000000 0.714286 -1.000000
v 0.000000 1.000000 -1.000000
v 0.181963 -1.000000 -0.983305
v 0.181963 -0.714286 -0.983305
v 0.181963 -0.428571 -0.983305
v 0.181963 -0.142857 -0.983305
v 0.181963 0.142857 -0.983305
v 0.181963 0.428572 -0.983305
v 0.181963 0.714286 -0.983305
v 0.181963 1.000000 -0.983305
v 0.368095 -1.000000 -0.929788
v 0.368095 -0.714285 -0.929788
v 0.368095 -0.428571 -0.929788
v 0.368095 -0.142857 -0.929788
v 0.368095 0.142858 -0.929788
v 0.368095 0.428572 -0.929788
v 0.368095 0.714286 -0.929788
v 0.368095 1.000000 -0.929788
v 0.547210 -1.000000 -0.836995
v 0.547210 -0.714286 -0.836995
v 0.547210 -0.428571 -0.836995
v 0.547210 -0.142857 -0.836995
v 0.547210 0.142858 -0.836995
v 0.547210 0.428572 -0.836995
v 0.547210 0.714286 -0.836995
v 0.547210 1.000000 -0.836996
v 0.707107 -1.000000 -0.707107
v 0.707107 -0.714286 -0.707107
v 0.707107 -0.428571 -0.707107
v 0.707107 -0.142857 -0.707107
v 0.707107 0.142858 -0.707107
v 0.707107 0.428572 -0.707107
v 0.707107 0.714286 -0.707107
v 0.707107 1.000000 -0.707107
v 0.836995 -1.000000 -0.547210
v 0.836996 -0.714286 -0.547210
v 0.836995 -0.428571 -0.547210
v 0.836995 -0.142857 -0.547210
v 0.836995 0.142858 -0.547210
v 0.836995 0.428572 -0.547210
v 0.836995 0.714286 -0.547210
v 0.836996 1.000000 -0.547210
v 0.929788 -1.000000 -0.368095
v 0.929788 -0.714286 -0.368095
v 0.929788 -0.428571 -0.368095
v 0.929788 -0.142857 -0.368095
v 0.929788 0.142858 -0.368095
v 0.929788 0.428572 -0.368095
v 0.929788 0.714286 -0.368095
v 0.929788 1.000000 -0.368095
v 0.983305 -1.000000 -0.181963
v 0.983305 -0.714286 -0.181963
v 0.983305 -0.428571 -0.181963
v 0.983305 -0.142857 -0.181963
v 0.983305 0.142858 -0.181963
v 0.983305 0.428572 -0.181963
v 0.983305 0.714286 -0.181963
v 0.983305 1.000000 -0.181963
v 1.000000 -1.000000 0.000000
v 1.000000 -0.714286 0.000000
v 1.000000 -0.428571 0.000000
v 1.000000 -0.142857 0.000000
v 1.000000 0.142858 0.000000
v 1.000000 0.428572 0.000000
v 1.000000 0.714286 0.000000
v 1.000000 1.000000 0.000000
v 0.983305 -1.000000 0.181963
v 0.983305 -0.714286 0.181963
v 0.983305 -0.428571 0.181963
v 0.983305 -0.142857 0.181963
v 0.983305 0.142857 0.181963
v 0.983305 0.428572 0.181963
v 0.983305 0.714286 0.181963
v 0.983305 1.000000 0.181963
v 0.929788 -1.000000 0.368095
v 0.929788 -0.714285 0.368095
v 0.929788 -0.428571 0.368095
v 0.929788 -0.142857 0.368095
v 0.929788 0.142858 0.368095
v 0.929788 0.428572 0.368095
v 0.929788 0.714286 0.368095
v 0.929788 1.000000 0.368095
v 0.836995 -1.000000 0.547210
v 0.836995 -0.714286 0.547210
v 0.836995 -0.428571 0.547210
v 0.836995 -0.142857 0.547210
v 0.836995 0.142858 0.547210
v 0.836995 0.428572 0.547210
v 0.836995 0.714286 0.547210
v 0.836996 1.000000 0.547210
v 0.707107 -1.000000 0.707107
v 0.707107 -0.714286 0.707107
v 0.707107 -0.428571 0.707107
v 0.707107 -0.142857 0.707107
v 0.707107 0.142858 0.707107
v 0.707107 0.428572 0.707107
v 0.707107 0.714286 0.707107
v 0.707107 1.000000 0.707107
v 0.547210 -1.000000 0.836995
v 0.547210 -0.714286 0.836996
v 0.547210 -0.428571 0.836995
v 0.547210 -0.142857 0.836995
v 0.547210 0.142858 0.836995
v 0.547210 0.428572 0.836995
v 0.547210 0.714286 0.836995
v 0.547210 1.000000 0.836996
v 0.368095 -1.000000 0.929788
v 0.368095 -0.714286 0.929788
v 0.368095 -0.428571 0.929788
v 0.368095 -0.142857 0.929788
v 0.368095 0.142858 0.929788
v 0.368095 0.428572 0.929788
v 0.368095 0.714286 0.929788
v 0.368095 1.000000 0.929788
v 0.181963 -1.000000 0.983305
v 0.181963 -0.714286 0.983305
v 0.181963 -0.428571 0.983305
v 0.181963 -0.142857 0.983305
v 0.181963 0.142858 0.983305
v 0.181963 0.428572 0.983305
v 0.181963 0.714286 0.983305
v 0.181963 1.000000 0.983305
vn -0.0000 -0.0000 1.0000
vn -0.1847 -0.0000 0.9828
vn -0.3700 -0.0000 0.9290
vn -0.5481 -0.0000 0.8364
vn -0.7071 -0.0000 0.7071
vn -0.8364 -0.0000 0.5481
vn -0.9290 -0.0000 0.3700
vn -0.9828 -0.0000 0.1847
vn -1.0000 -0.0000 -0.0000
vn -0.9828 -0.0000 -0.1847
vn -0.9290 -0.0000 -0.3700
vn -0.8364 -0.0000 -0.5481
vn -0.7071 -0.0000 -0.7071
vn -0.5481 -0.0000 -0.8364
vn -0.3700 -0.0000 -0.9290
vn -0.1847 -0.0000 -0.9828
vn -0.0000 -0.0000 -1.0000
vn 0.1847 -0.0000 -0.9828
vn 0.3700 -0.0000 -0.9290
vn 0.5481 -0.0000 -0.8364
vn 0.7071 -0.0000 -0.7071
vn 0.8364 -0.0000 -0.5481
vn 0.9290 -0.0000 -0.3700
vn 0.9828 -0.0000 -0.1847
vn 1.0000 -0.0000 -0.0000
vn 0.9828 -0.0000 0.1847
vn 0.9290 -0.0000 0.3700
vn 0.8364 -0.0000 0.5481
vn 0.7071 -0.0000 0.7071
vn 0.5481 -0.0000 0.8364
vn 0.3700 -0.0000 0.9290
vn 0.1847 -0.0000 0.9828
vt 0.000000 0.142857
vt 0.031250 0.142857
vt 0.031250 0.000000
vt 0.000000 0.000000
vt 0.000000 0.285714
vt 0.031250 0.285714
vt 0.000000 0.428571
vt 0.031250 0.428571
vt 0.000000 0.571429
vt 0.031250 0.571429
vt 0.000000 0.714286
vt 0.031250 0.714286
vt 0.000000 0.857143
vt 0.031250 0.857143
vt 0.000000 1.000000
vt 0.031250 1.000000
vt 0.062500 0.142857
vt 0.062500 0.000000
vt 0.062500 0.285714
vt 0.062500 0.428571
vt 0.062500 0.571429
vt 0.062500 0.714286
vt 0.062500 0.857143
vt 0.062500 1.000000
vt 0.093750 0.142857
vt 0.093750 0.000000
vt 0.093750 0.285714
vt 0.093750 0.428571
vt 0.093750 0.571429
vt 0.093750 0.714286
vt 0.093750 0.857143
vt 0.093750 1.000000
vt 0.125000 0.142857
vt 0.125000 0.000000
vt 0.125000 0.285714
vt 0.125000 0.428571
vt 0.125000 0.571429
vt 0.125000 0.714286
vt 0.125000 0.857143
vt 0.125000 1.000000
vt 0.156250 0.142857
vt 0.156250 0.000000
vt 0.156250 0.285714
vt 0.156250 0.428571
vt 0.156250 0.571429
vt 0.156250 0.714286
vt 0.156250 0.857143
vt 0.156250 1.000000
vt 0.187500 0.142857
vt 0.187500 0.000000
vt 0.187500 0.285714
vt 0.187500 0.428571
vt 0.187500 0.571429
vt 0.187500 0.714286
vt 0.187500 0.857143
vt 0.187500 1.000000
vt 0.218750 0.142857
vt 0.218750 0.000000
vt 0.218750 0.285714
vt 0.218750 0.428571
vt 0.218750 0.571429
vt 0.218750 0.714286
vt 0.218750 0.857143
vt 0.218750 1.000000
vt 0.250000 0.142857
vt 0.250000 0.000000
vt 0.250000 0.285714
vt 0.250000 0.428571
vt 0.250000 0.571429
vt 0.250000 0.714286
vt 0.250000 0.857143
vt 0.250000 1.000000
vt 0.281250 0.142857
vt 0.281250 0.000000
vt 0.281250 0.285714
vt 0.281250 0.428571
vt 0.281250 0.571429
vt 0.281250 0.714286
vt 0.281250 0.857143
vt 0.281250 1.000000
vt 0.312500 0.142857
vt 0.312500 0.000000
vt 0.312500 0.285714
vt 0.312500 0.428571
vt 0.312500 0.571429
vt 0.312500 0.714286
vt 0.312500 0.857143
vt 0.312500 1.000000
vt 0.343750 0.142857
vt 0.343750 0.000000
vt 0.343750 0.285714
vt 0.343750 0.428571
vt 0.343750 0.571429
vt 0.343750 0.714286
vt 0.343750 0.857143
vt 0.343750 1.000000
vt 0.375000 0.142857
vt 0.375000 0.000000
vt 0.375000 0.285714
vt 0.375000 0.428571
vt 0.375000 0.571429
vt 0.375000 0.714286
vt 0.375000 0.857143
vt 0.375000 1.000000
vt 0.406250 0.142857
vt 0.406250 0.000000
vt 0.406250 0.285714
vt 0.406250 0.428571
vt 0.406250 0.571429
vt 0.406250 0.714286
vt 0.406250 0.857143
vt 0.406250 1.000000
vt 0.437500 0.142857
vt 0.437500 0.000000
vt 0.437500 0.285714
vt 0.437500 0.428571
vt 0.437500 0.571429
vt 0.437500 0.714286
vt 0.437500 0.857143
vt 0.437500 1.000000
vt 0.468750 0.142857
vt 0.468750 0.000000
vt 0.468750 0.285714
vt 0.468750 0.428571
vt 0.468750 0.571429
vt 0.468750 0.714286
vt 0.468750 0.857143
vt 0.468750 1.000000
vt 0.500000 0.142857
vt 0.500000 0.000000
vt 0.500000 0.285714
vt 0.500000 0.428571
vt 0.500000 0.571429
vt 0.500000 0.714286
vt 0.500000 0.857143
vt 0.500000 1.000000
vt 0.531250 0.142857
vt 0.531250 0.000000
vt 0.531250 0.285714
vt 0.531250 0.428571
vt 0.531250 0.571429
vt 0.531250 0.714286
vt 0.531250 0.857143
vt 0.531250 1.000000
vt 0.562500 0.142857
vt 0.562500 0.000000
vt 0.562500 0.285714
vt 0.562500 0.428571
vt 0.562500 0.571429
vt 0.562500 0.714286
vt 0.562500 0.857143
vt 0.562500 1.000000
vt 0.593750 0.142857
vt 0.593750 0.000000
vt 0.593750 0.285714
vt 0.593750 0.428571
vt 0.593750 0.571429
vt 0.593750 0.714286
vt 0.593750 0.857143
vt 0.593750 1.000000
vt 0.625000 0.142857
vt 0.625000 0.000000
vt 0.625000 0.285714
vt 0.625000 0.428571
vt 0.625000 0.571429
vt 0.625000 0.714286
vt 0.625000 0.857143
vt 0.625000 1.000000
vt 0.656250 0.142857
vt 0.656250 0.000000
vt 0.656250 0.285714
vt 0.656250 0.428571
vt 0.656250 0.571429
vt 0.656250 0.714286
vt 0.656250 0.857143
vt 0.656250 1.000000
vt 0.687500 0.142857
vt 0.687500 0.000000
vt 0.687500 0.285714
vt 0.687500 0.428571
vt 0.687500 0.571429
vt 0.687500 0.714286
vt 0.687500 0.857143
vt 0.687500 1.000000
vt 0.718750 0.142857
vt 0.718750 0.000000
vt 0.718750 0.285714
vt 0.718750 0.428571
vt 0.718750 0.571429
vt 0.718750 0.714286
vt 0.718750 0.857143
vt 0.718750 1.000000
vt 0.750000 0.142857
vt 0.750000 0.000000
vt 0.750000 0.285714
vt 0.750000 0.428571
vt 0.750000 0.571429
vt 0.750000 0.714286
vt 0.750000 0.857143
vt 0.750000 1.000000
vt 0.781250 0.142857
vt 0.781250 0.000000
vt 0.781250 0.285714
vt 0.781250 0.428571
vt 0.781250 0.571429
vt 0.781250 0.714286
vt 0.781250 0.857143
vt 0.781250 1.000000
vt 0.812500 0.142857
vt 0.812500 0.000000
vt 0.812500 0.285714
vt 0.812500 0.428571
vt 0.812500 0.571429
vt 0.812500 0.714286
vt 0.812500 0.857143
vt 0.812500 1.000000
vt 0.843750 0.142857
vt 0.843750 0.000000
vt 0.843750 0.285714
vt 0.843750 0.428571
vt 0.843750 0.571429
vt 0.843750 0.714286
vt 0.843750 0.857143
vt 0.843750 1.000000
vt 0.875000 0.142857
vt 0.875000 0.000000
vt 0.875000 0.285714
vt 0.875000 0.428571
vt 0.875000 0.571429
vt 0.875000 0.714286
vt 0.875000 0.857143
vt 0.875000 1.000000
vt 0.906250 0.142857
vt 0.906250 0.000000
vt 0.906250 0.285714
vt 0.906250 0.428571
vt 0.906250 0.571429
vt 0.906250 0.714286
vt 0.906250 0.857143
vt 0.906250 1.000000
vt 0.937500 0.142857
vt 0.937500 0.000000
vt 0.937500 0.285714
vt 0.937500 0.428571
vt 0.937500 0.571429
vt 0.937500 0.714286
vt 0.937500 0.857143
vt 0.937500 1.000000
vt 0.968750 0.142857
vt 0.968750 0.000000
vt 0.968750 0.285714
vt 0.968750 0.428571
vt 0.968750 0.571429
vt 0.968750 0.714286
vt 0.968750 0.857143
vt 0.968750 1.000000
vt 1.000000 0.142857
vt 1.000000 0.000000
vt 1.000000 0.285714
vt 1.000000 0.428571
vt 1.000000 0.571429
vt 1.000000 0.714286
vt 1.000000 0.857143
vt 1.000000 1.000000
s 1
f 2/1/1 10/2/2 9/3/2 1/4/1
f 3/5/1 11/6/2 10/2/2 2/1/1
f 4/7/1 12/8/2 11/6/2 3/5/1
f 5/9/1 13/10/2 12/8/2 4/7/1
f 6/11/1 14/12/2 13/10/2 5/9/1
f 7/13/1 15/14/2 14/12/2 6/11/1
f 8/15/1 16/16/2 15/14/2 7/13/1
f 10/2/2 18/17/3 17/18/3 9/3/2
f 11/6/2 19/19/3 18/17/3 10/2/2
f 12/8/2 20/20/3 19/19/3 11/6/2
f 13/10/2 21/21/3 20/20/3 12/8/2
f 14/12/2 22/22/3 21/21/3 13/10/2
f 15/14/2 23/23/3 22/22/3 14/12/2
f 16/16/2 24/24/3 23/23/3 15/14/2
f 18/17/3 26/25/4 25/26/4 17/18/3
f 19/19/3 27/27/4 26/25/4 18/17/3
f 20/20/3 28/28/4 27/27/4 19/19/3
f 21/21/3 29/29/4 28/28/4 20/20/3
f 22/22/3 30/30/4 29/29/4 21/21/3
f 23/23/3 31/31/4 30/30/4 22/22/3
f 24/24/3 32/32/4 31/31/4 23/23/3
f 26/25/4 34/33/5 33/34/5 25/26/4
f 27/27/4 35/35/5 34/33/5 26/25/4
f 28/28/4 36/36/5 35/35/5 27/27/4
f 29/29/4 37/37/5 36/36/5 28/28/4
f 30/30/4 38/38/5 37/37/5 29/29/4
f 31/31/4 39/39/5 38/38/5 30/30/4
f 32/32/4 40/40/5 39/39/5 31/31/4
f 34/33/5 42/41/6 41/42/6 33/34/5
f 35/35/5 43/43/6 42/41/6 34/33/5
f 36/36/5 44/44/6 43/43/6 35/35/5
f 37/37/5 45/45/6 44/44/6 36/36/5
f 38/38/5 46/46/6 45/45/6 37/37/5
f 39/39/5 47/47/6 46/46/6 38/38/5
f 40/40/5 48/48/6 47/47/6 39/39/5
f 42/41/6 50/49/7 49/50/7 41/42/6
f 43/43/6 51/51/7 50/49/7 42/41/6
f 44/44/6 52/52/7 51/51/7 43/43/6
f 45/45/6 53/53/7 52/52/7 44/44/6
f 46/46/6 54/54/7 53/53/7 45/45/6
f 47/47/6 55/55/7 54/54/7 46/46/6
f 48/48/6 56/56/7 55/55/7 47/47/6
f 50/49/7 58/57/8 57/58/8 49/50/7
f 51/51/7 59/59/8 58/57/8 50/49/7
f 52/52/7 60/60/8 59/59/8 51/51/7
f 53/53/7 61/61/8 60/60/8 52/52/7
f 54/54/7 62/62/8 61/61/8 53/53/7
f 55/55/7 63/63/8 62/62/8 54/54/7
f 56/56/7 64/64/8 63/63/8 55/55/7
f 58/57/8 66/65/9 65/66/9 57/58/8
f 59/59/8 67/67/9 66/65/9 58/57/8
f 60/60/8 68/68/9 67/67/9 59/59/8
f 61/61/8 69/69/9 68/68/9 60/60/8
f 62/62/8 70/70/9 69/69/9 61/61/8
f 63/63/8 71/71/9 70/70/9 62/62/8
f 64/64/8 72/72/9 71/71/9 63/63/8
f 66/65/9 74/73/10 73/74/10 65/66/9
f 67/67/9 75/75/10 74/73/10 66/65/9
f 68/68/9 76/76/10 75/75/10 67/67/9
f 69/69/9 77/77/10 76/76/10 68/68/9
f 70/70/9 78/78/10 77/77/10 69/69/9
f 71/71/9 79/79/10 78/78/10 70/70/9
f 72/72/9 80/80/10 79/79/10 71/71/9
f 74/73/10 82/81/11 81/82/11 73/74/10
f 75/75/10 83/83/11 82/81/11 74/73/10
f 76/76/10 84/84/11 83/83/11 75/75/10
f 77/77/10 85/85/11 84/84/11 76/76/10
f 78/78/10 86/86/11 85/85/11 77/77/10
f 79/79/10 87/87/11 86/86/11 78/78/10
f 80/80/10 88/88/11 87/87/11 79/79/10
f 82/81/11 90/89/12 89/90/12 81/82/11
f 83/83/11 91/91/12 90/89/12 82/81/11
f 84/84/11 92/92/12 91/91/12 83/83/11
f 85/85/11 93/93/12 92/92/12 84/84/11
f 86/86/11 94/94/12 93/93/12 85/85/11
f 87/87/11 95/95/12 94/94/12 86/86/11
f 88/88/11 96/96/12 95/95/12 87/87/11
f 90/89/12 98/97/13 97/98/13 89/90/12
f 91/91/12 99/99/13 98/97/13 90/89/12
f 92/92/12 100/100/13 99/99/13 91/91/12
f 93/93/12 101/101/13 100/100/13 92/92/12
f 94/94/12 102/102/13 101/101/13 93/93/12
f 95/95/12 103/103/13 102/102/13 94/94/12
f 96/96/12 104/104/13 103/103/13 95/95/12
f 98/97/13 106/105/14 105/106/14 97/98/13
f 99/99/13 107/107/14 106/105/14 98/97/13
f 100/100/13 108/108/14 107/107/14 99/99/13
f 101/101/13 109/109/14 108/108/14 100/100/13
f 102/102/13 110/110/14 109/109/14 101/101/13
f 103/103/13 111/111/14 110/110/14 102/102/13
f 104/104/13 112/112/14 111/111/14 103/103/13
f 106/105/14 114/113/15 113/114/15 105/106/14
f 107/107/14 115/115/15 114/113/15 106/105/14
f 108/108/14 116/116/15 115/115/15 107/107/14
f 109/109/14 117/117/15 116/116/15 108/108/14
f 110/110/14 118/118/15 117/117/15 109/109/14
f 111/111/14 119/119/15 118/118/15 110/110/14
f 112/112/14 120/120/15 119/119/15 111/111/14
f 114/113/15 122/121/16 121/122/16 113/114/15
f 115/115/15 123/123/16 122/121/16 114/113/15
f 116/116/15 124/124/16 123/123/16 115/115/15
f 117/117/15 125/125/16 124/124/16 116/116/15
f 118/118/15 126/126/16 125/125/16 117/117/15
f 119/119/15 127/127/16 126/126/16 118/118/15
f 120/120/15 128/128/16 127/127/16 119/119/15
f 122/121/16 130/129/17 129/130/17 121/122/16
f 123/123/16 131/131/17 130/129/17 122/121/16
f 124/124/16 132/132/17 131/131/17 123/123/16
f 125/125/16 133/133/17 132/132/17 124/124/16
f 126/126/16 134/134/17 133/133/17 125/125/16
f 127/127/16 135/135/17 134/134/17 126/126/16
f 128/128/16 136/136/17 135/135/17 127/127/16
f 130/129/17 138/137/18 137/138/18 129/130/17
f 131/131/17 139/139/18 138/137/18 130/129/17
f 132/132/17 140/140/18 139/139/18 131/131/17
f 133/133/17 141/141/18 140/140/18 132/132/17
f 134/134/17 142/142/18 141/141/18 133/133/17
f 135/135/17 143/143/18 142/142/18 134/134/17
f 136/136/17 144/144/18 143/143/18 135/135/17
f 138/137/18 146/145/19 145/146/19 137/138/18
f 139/139/18 147/147/19 146/145/19 138/137/18
f 140/140/18 148/148/19 147/147/19 139/139/18
f 141/141/18 149/149/19 148/148/19 140/140/18
f 142/142/18 150/150/19 149/149/19 141/141/18
f 143/143/18 151/151/19 150/150/19 142/142/18
f 144/144/18 152/152/19 151/151/19 143/143/18
f 146/145/19 154/153/20 153/154/20 145/146/19
f 147/147/19 155/155/20 154/153/20 146/145/19
f 148/148/19 156/156/20 155/155/20 147/147/19
f 149/149/19 157/157/20 156/156/20 148/148/19
f 150/150/19 158/158/20 157/157/20 149/149/19
f 151/151/19 159/159/20 158/158/20 150/150/19
f 152/152/19 160/160/20 159/159/20 151/151/19
f 154/153/20 162/161/21 161/162/21 153/154/20
f 155/155/20 163/163/21 162/161/21 154/153/20
f 156/156/20 164/164/21 163/163/21 155/155/20
f 157/157/20 165/165/21 164/164/21 156/156/20
f 158/158/20 166/166/21 165/165/21 157/157/20
f 159/159/20 167/167/21 166/166/21 158/158/20
f 160/160/20 168/168/21 167/167/21 159/159/20
f 162/161/21 170/169/22 169/170/22 161/162/21
f 163/163/21 171/171/22 170/169/22 162/161/21
f 164/164/21 172/172/22 171/171/22 163/163/21
f 165/165/21 173/173/22 172/172/22 164/164/21
f 166/166/21 174/174/22 173/173/22 165/165/21
f 167/167/21 175/175/22 174/174/22 166/166/21
f 168/168/21 176/176/22 175/175/22 167/167/21
f 170/169/22 178/177/23 177/178/23 169/170/22
f 171/171/22 179/179/23 178/177/23 170/169/22
f 172/172/22 180/180/23 179/179/23 171/171/22
f 173/173/22 181/181/23 180/180/23 172/172/22
f 174/174/22 182/182/23 181/181/23 173/173/22
f 175/175/22 183/183/23 182/182/23 174/174/22
f 176/176/22 184/184/23 183/183/23 175/175/22
f 178/177/23 186/185/24 185/186/24 177/178/23
f 179/179/23 187/187/24 186/185/24 178/177/23
f 180/180/23 188/188/24 187/187/24 179/179/23
f 181/181/23 189/189/24 188/188/24 180/180/23
f 182/182/23 190/190/24 189/189/24 181/181/23
f 183/183/23 191/191/24 190/190/24 182/182/23
f 184/184/23 192/192/24 191/191/24 183/183/23
f 186/185/24 194/193/25 193/194/25 185/186/24
f 187/187/24 195/195/25 194/193/25 186/185/24
f 188/188/24 196/196/25 195/195/25 187/187/24
f 189/189/24 197/197/25 196/196/25 188/188/24
f 190/190/24 198/198/25 197/197/25 189/189/24
f 191/191/24 199/199/25 198/198/25 190/190/24
f 192/192/24 200/200/25 199/199/25 191/191/24
f 194/193/25 202/201/26 201/202/26 193/194/25
f 195/195/25 203/203/26 202/201/26 194/193/25
f 196/196/25 204/204/26 203/203/26 195/195/25
f 197/197/25 205/205/26 204/204/26 196/196/25
f 198/198/25 206/206/26 205/205/26 197/197/25
f 199/199/25 207/207/26 206/206/26 198/198/25
f 200/200/25 208/208/26 207/207/26 199/199/25
f 202/201/26 210/209/27 209/210/27 201/202/26
f 203/203/26 211/211/27 210/209/27 202/201/26
f 204/204/26 212/212/27 211/211/27 203/203/26
f 205/205/26 213/213/27 212/212/27 204/204/26
f 206/206/26 214/214/27 213/213/27 205/205/26
f 207/207/26 215/215/27 214/214/27 206/206/26
f 208/208/26 216/216/27 215/215/27 207/207/26
f 210/209/27 218/217/28 217/218/28 209/210/27
f 211/211/27 219/219/28 218/217/28 210/209/27
f 212/212/27 220/220/28 219/219/28 211/211/27
f 213/213/27 221/221/28 220/220/28 212/212/27
f 214/214/27 222/222/28 221/221/28 213/213/27
f 215/215/27 223/223/28 222/222/28 214/214/27
f 216/216/27 224/224/28 223/223/28 215/215/27
f 218/217/28 226/225/29 225/226/29 217/218/28
f 219/219/28 227/227/29 226/225/29 218/217/28
f 220/220/28 228/228/29 227/227/29 219/219/28
f 221/221/28 229/229/29 228/228/29 220/220/28
f 222/222/28 230/230/29 229/229/29 221/221/28
f 223/223/28 231/231/29 230/230/29 222/222/28
f 224/224/28 232/232/29 231/231/29 223/223/28
f 226/225/29 234/233/30 233/234/30 225/226/29
f 227/227/29 235/235/30 234/233/30 226/225/29
f 228/228/29 236/236/30 235/235/30 227/227/29
f 229/229/29 237/237/30 236/236/30 228/228/29
f 230/230/29 238/238/30 237/237/30 229/229/29
f 231/231/29 239/239/30 238/238/30 230/230/29
f 232/232/29 240/240/30 239/239/30 231/231/29
f 234/233/30 242/241/31 241/242/31 233/234/30
f 235/235/30 243/243/31 242/241/31 234/233/30
f 236/236/30 244/244/31 243/243/31 235/235/30
f 237/237/30 245/245/31 244/244/31 236/236/30
f 238/238/30 246/246/31 245/245/31 237/237/30
f 239/239/30 247/247/31 246/246/31 238/238/30
f 240/240/30 248/248/31 247/247/31 239/239/30
f 242/241/31 250/249/32 249/250/32 241/242/31
f 243/243/31 251/251/32 250/249/32 242/241/31
f 244/244/31 252/252/32 251/251/32 243/243/31
f 245/245/31 253/253/32 252/252/32 244/244/31
f 246/246/31 254/254/32 253/253/32 245/245/31
f 247/247/31 255/255/32 254/254/32 246/246/31
f 248/248/31 256/256/32 255/255/32 247/247/31
f 250/249/32 2/257/1 1/258/1 249/250/32
f 251/251/32 3/259/1 2/257/1 250/249/32
f 252/252/32 4/260/1 3/259/1 251/251/32
f 253/253/32 5/261/1 4/260/1 252/252/32
f 254/254/32 6/262/1 5/261/1 253/253/32
f 255/255/32 7/263/1 6/262/1 254/254/32
f 256/256/32 8/264/1 7/263/1 255/255/32
